<svg width="232" height="67" viewBox="0 0 232 67" fill="none" xmlns="http://www.w3.org/2000/svg">
<rect width="154.541" height="66.5408" rx="33.2704" fill="white"/>
<circle cx="33.2704" cy="33.2704" r="21.2704" fill="#FFCC6A"/>
<path d="M33.3955 28.5203C32.4313 28.5203 31.4888 28.8062 30.6871 29.3419C29.8854 29.8776 29.2606 30.639 28.8916 31.5297C28.5226 32.4205 28.4261 33.4007 28.6142 34.3464C28.8023 35.292 29.2666 36.1607 29.9484 36.8425C30.6301 37.5243 31.4988 37.9886 32.4444 38.1767C33.3901 38.3648 34.3703 38.2682 35.2611 37.8992C36.1519 37.5303 36.9132 36.9054 37.4489 36.1037C37.9846 35.302 38.2705 34.3595 38.2705 33.3953C38.2692 32.1028 37.7551 30.8636 36.8412 29.9497C35.9272 29.0357 34.688 28.5217 33.3955 28.5203ZM33.3955 35.8328C32.9134 35.8328 32.4422 35.6899 32.0413 35.422C31.6405 35.1542 31.328 34.7735 31.1436 34.3281C30.9591 33.8827 30.9108 33.3926 31.0048 32.9198C31.0989 32.447 31.331 32.0126 31.6719 31.6718C32.0128 31.3309 32.4471 31.0987 32.92 31.0047C33.3928 30.9106 33.8829 30.9589 34.3283 31.1434C34.7737 31.3279 35.1544 31.6403 35.4222 32.0411C35.6901 32.442 35.833 32.9132 35.833 33.3953C35.833 34.0418 35.5762 34.6618 35.1191 35.1189C34.662 35.576 34.042 35.8328 33.3955 35.8328ZM38.2705 22.4266H28.5205C26.9049 22.4285 25.356 23.0711 24.2137 24.2135C23.0713 25.3559 22.4286 26.9047 22.4268 28.5203V38.2703C22.4286 39.8859 23.0713 41.4348 24.2137 42.5772C25.356 43.7196 26.9049 44.3622 28.5205 44.3641H38.2705C39.8861 44.3622 41.435 43.7196 42.5774 42.5772C43.7198 41.4348 44.3624 39.8859 44.3643 38.2703V28.5203C44.3624 26.9047 43.7198 25.3559 42.5774 24.2135C41.435 23.0711 39.8861 22.4285 38.2705 22.4266ZM41.9268 38.2703C41.9268 39.24 41.5415 40.17 40.8559 40.8557C40.1702 41.5414 39.2402 41.9266 38.2705 41.9266H28.5205C27.5508 41.9266 26.6208 41.5414 25.9351 40.8557C25.2495 40.17 24.8643 39.24 24.8643 38.2703V28.5203C24.8643 27.5506 25.2495 26.6206 25.9351 25.935C26.6208 25.2493 27.5508 24.8641 28.5205 24.8641H38.2705C39.2402 24.8641 40.1702 25.2493 40.8559 25.935C41.5415 26.6206 41.9268 27.5506 41.9268 28.5203V38.2703ZM40.3018 28.1141C40.3018 28.4355 40.2065 28.7496 40.0279 29.0169C39.8493 29.2841 39.5955 29.4924 39.2986 29.6154C39.0017 29.7384 38.675 29.7706 38.3597 29.7079C38.0445 29.6452 37.755 29.4904 37.5277 29.2631C37.3004 29.0359 37.1457 28.7463 37.083 28.4311C37.0203 28.1159 37.0525 27.7891 37.1755 27.4922C37.2984 27.1953 37.5067 26.9415 37.774 26.7629C38.0412 26.5844 38.3554 26.4891 38.6768 26.4891C39.1077 26.4891 39.5211 26.6603 39.8258 26.965C40.1306 27.2698 40.3018 27.6831 40.3018 28.1141Z" fill="#7551DC"/>
<path d="M69.501 31.5344C68.3597 31.5344 67.357 31.3104 66.493 30.8624C65.629 30.4144 64.957 29.7744 64.477 28.9424C63.997 28.1211 63.757 27.1504 63.757 26.0304C63.757 24.8891 63.949 23.8277 64.333 22.8464C64.7277 21.8651 65.277 21.0117 65.981 20.2864C66.6957 19.5504 67.5383 18.9797 68.509 18.5744C69.4903 18.1584 70.573 17.9504 71.757 17.9504C72.9517 17.9504 73.9863 18.1797 74.861 18.6384C75.7463 19.0971 76.429 19.7371 76.909 20.5584C77.3997 21.3691 77.645 22.3131 77.645 23.3904C77.645 24.0197 77.5704 24.6277 77.421 25.2144C77.2717 25.8011 77.0423 26.3344 76.733 26.8144C76.4343 27.2837 76.0717 27.6624 75.645 27.9504C75.2183 28.2277 74.7223 28.3664 74.157 28.3664C73.485 28.3664 72.9943 28.1637 72.685 27.7584C72.3863 27.3531 72.2797 26.8251 72.365 26.1744L72.413 25.6464L72.701 26.2384C72.4343 26.8997 72.013 27.4224 71.437 27.8064C70.8717 28.1797 70.2477 28.3664 69.565 28.3664C68.7757 28.3664 68.1517 28.1264 67.693 27.6464C67.245 27.1557 67.021 26.4891 67.021 25.6464C67.021 25.0597 67.1117 24.4997 67.293 23.9664C67.485 23.4331 67.7463 22.9584 68.077 22.5424C68.4077 22.1157 68.8023 21.7797 69.261 21.5344C69.7303 21.2891 70.2477 21.1664 70.813 21.1664C71.453 21.1664 71.9597 21.3371 72.333 21.6784C72.7063 22.0091 72.9303 22.4944 73.005 23.1344L72.669 23.3424L73.037 21.3264H74.365L73.581 25.8064C73.5063 26.2437 73.5277 26.6011 73.645 26.8784C73.7623 27.1451 74.0077 27.2784 74.381 27.2784C74.7117 27.2784 74.9997 27.1611 75.245 26.9264C75.4903 26.6917 75.6983 26.3877 75.869 26.0144C76.0397 25.6304 76.1677 25.2144 76.253 24.7664C76.3383 24.3184 76.381 23.8811 76.381 23.4544C76.381 22.5371 76.1837 21.7531 75.789 21.1024C75.405 20.4517 74.8557 19.9504 74.141 19.5984C73.4263 19.2357 72.573 19.0544 71.581 19.0544C70.621 19.0544 69.741 19.2304 68.941 19.5824C68.141 19.9344 67.4477 20.4251 66.861 21.0544C66.2743 21.6731 65.821 22.3984 65.501 23.2304C65.181 24.0624 65.021 24.9531 65.021 25.9024C65.021 26.8624 65.2077 27.6784 65.581 28.3504C65.965 29.0224 66.509 29.5291 67.213 29.8704C67.9277 30.2224 68.7703 30.3984 69.741 30.3984C70.2103 30.3984 70.6743 30.3504 71.133 30.2544C71.6023 30.1691 72.0343 30.0357 72.429 29.8544L72.701 30.9264C72.2103 31.1291 71.693 31.2784 71.149 31.3744C70.6157 31.4811 70.0663 31.5344 69.501 31.5344ZM70.061 27.1664C70.477 27.1664 70.861 27.0544 71.213 26.8304C71.565 26.5957 71.8583 26.2757 72.093 25.8704C72.3277 25.4544 72.4663 24.9797 72.509 24.4464C72.5517 24.0624 72.5143 23.7157 72.397 23.4064C72.2903 23.0864 72.109 22.8357 71.853 22.6544C71.6077 22.4624 71.2877 22.3664 70.893 22.3664C70.5197 22.3664 70.1783 22.4517 69.869 22.6224C69.5703 22.7931 69.3143 23.0224 69.101 23.3104C68.8983 23.5984 68.7383 23.9237 68.621 24.2864C68.5143 24.6491 68.461 25.0171 68.461 25.3904C68.461 25.9237 68.5943 26.3557 68.861 26.6864C69.1277 27.0064 69.5277 27.1664 70.061 27.1664ZM80.4869 28.2704V24.1104L76.7909 17.0704H78.5989L81.5109 22.9904H81.0789L83.9589 17.0704H85.7509L82.0869 24.1104V28.2704H80.4869ZM88.4515 28.4624C87.6942 28.4624 87.0115 28.2917 86.4035 27.9504C85.8062 27.5984 85.3315 27.1077 84.9795 26.4784C84.6382 25.8384 84.4675 25.0971 84.4675 24.2544C84.4675 23.4117 84.6435 22.6757 84.9955 22.0464C85.3475 21.4064 85.8275 20.9157 86.4355 20.5744C87.0435 20.2224 87.7208 20.0464 88.4675 20.0464C89.2355 20.0464 89.9182 20.2224 90.5155 20.5744C91.1235 20.9157 91.5982 21.4011 91.9395 22.0304C92.2915 22.6597 92.4675 23.4011 92.4675 24.2544C92.4675 25.0971 92.2915 25.8384 91.9395 26.4784C91.5875 27.1077 91.1075 27.5984 90.4995 27.9504C89.9022 28.2917 89.2195 28.4624 88.4515 28.4624ZM88.4515 27.0864C88.8888 27.0864 89.2835 26.9851 89.6355 26.7824C89.9982 26.5691 90.2862 26.2491 90.4995 25.8224C90.7235 25.3957 90.8355 24.8731 90.8355 24.2544C90.8355 23.6251 90.7288 23.1024 90.5155 22.6864C90.3022 22.2597 90.0142 21.9451 89.6515 21.7424C89.2995 21.5291 88.9102 21.4224 88.4835 21.4224C88.0675 21.4224 87.6728 21.5291 87.2995 21.7424C86.9368 21.9451 86.6435 22.2597 86.4195 22.6864C86.2062 23.1024 86.0995 23.6251 86.0995 24.2544C86.0995 24.8731 86.2062 25.3957 86.4195 25.8224C86.6435 26.2491 86.9315 26.5691 87.2835 26.7824C87.6462 26.9851 88.0355 27.0864 88.4515 27.0864ZM96.318 28.4624C95.6887 28.4624 95.1447 28.3344 94.686 28.0784C94.2273 27.8224 93.87 27.4384 93.614 26.9264C93.3687 26.4037 93.246 25.7531 93.246 24.9744V20.2384H94.846V24.8144C94.846 25.5717 95.006 26.1424 95.326 26.5264C95.6567 26.9104 96.1314 27.1024 96.75 27.1024C97.1767 27.1024 97.5553 27.0011 97.886 26.7984C98.2274 26.5957 98.494 26.3024 98.686 25.9184C98.878 25.5344 98.974 25.0651 98.974 24.5104V20.2384H100.574V28.2704H99.15L99.038 26.8944C98.7927 27.3744 98.43 27.7584 97.95 28.0464C97.4807 28.3237 96.9367 28.4624 96.318 28.4624ZM101.789 28.2704V20.2384H103.229L103.373 21.7584C103.554 21.3957 103.784 21.0917 104.061 20.8464C104.349 20.5904 104.685 20.3931 105.069 20.2544C105.464 20.1157 105.906 20.0464 106.397 20.0464V21.7264H105.869C105.528 21.7264 105.208 21.7691 104.909 21.8544C104.61 21.9397 104.344 22.0784 104.109 22.2704C103.885 22.4624 103.709 22.7237 103.581 23.0544C103.453 23.3851 103.389 23.7957 103.389 24.2864V28.2704H101.789ZM111.931 28.4624C110.832 28.4624 109.883 28.2224 109.083 27.7424C108.283 27.2517 107.664 26.5744 107.227 25.7104C106.8 24.8357 106.587 23.8224 106.587 22.6704C106.587 21.5291 106.8 20.5211 107.227 19.6464C107.664 18.7717 108.283 18.0944 109.083 17.6144C109.883 17.1237 110.832 16.8784 111.931 16.8784C113.232 16.8784 114.293 17.1931 115.115 17.8224C115.936 18.4517 116.453 19.3371 116.667 20.4784H114.923C114.752 19.8171 114.416 19.2891 113.915 18.8944C113.424 18.4997 112.757 18.3024 111.915 18.3024C111.168 18.3024 110.512 18.4784 109.947 18.8304C109.392 19.1824 108.965 19.6837 108.667 20.3344C108.368 20.9851 108.219 21.7637 108.219 22.6704C108.219 23.5771 108.368 24.3611 108.667 25.0224C108.965 25.6731 109.392 26.1744 109.947 26.5264C110.512 26.8677 111.168 27.0384 111.915 27.0384C112.757 27.0384 113.424 26.8517 113.915 26.4784C114.416 26.0944 114.747 25.5771 114.907 24.9264H116.667C116.453 26.0357 115.936 26.9051 115.115 27.5344C114.293 28.1531 113.232 28.4624 111.931 28.4624ZM121.221 28.4624C120.464 28.4624 119.781 28.2917 119.173 27.9504C118.576 27.5984 118.101 27.1077 117.749 26.4784C117.408 25.8384 117.237 25.0971 117.237 24.2544C117.237 23.4117 117.413 22.6757 117.765 22.0464C118.117 21.4064 118.597 20.9157 119.205 20.5744C119.813 20.2224 120.49 20.0464 121.237 20.0464C122.005 20.0464 122.688 20.2224 123.285 20.5744C123.893 20.9157 124.368 21.4011 124.709 22.0304C125.061 22.6597 125.237 23.4011 125.237 24.2544C125.237 25.0971 125.061 25.8384 124.709 26.4784C124.357 27.1077 123.877 27.5984 123.269 27.9504C122.672 28.2917 121.989 28.4624 121.221 28.4624ZM121.221 27.0864C121.658 27.0864 122.053 26.9851 122.405 26.7824C122.768 26.5691 123.056 26.2491 123.269 25.8224C123.493 25.3957 123.605 24.8731 123.605 24.2544C123.605 23.6251 123.498 23.1024 123.285 22.6864C123.072 22.2597 122.784 21.9451 122.421 21.7424C122.069 21.5291 121.68 21.4224 121.253 21.4224C120.837 21.4224 120.442 21.5291 120.069 21.7424C119.706 21.9451 119.413 22.2597 119.189 22.6864C118.976 23.1024 118.869 23.6251 118.869 24.2544C118.869 24.8731 118.976 25.3957 119.189 25.8224C119.413 26.2491 119.701 26.5691 120.053 26.7824C120.416 26.9851 120.805 27.0864 121.221 27.0864Z" fill="#121212"/>
<path d="M64.257 46.2704V38.9984L62.901 39.2984V38.6024L64.593 37.8704H65.277V46.2704H64.257ZM66.5581 46.2704V45.5624C67.1261 45.1144 67.6621 44.6624 68.1661 44.2064C68.6781 43.7424 69.1301 43.2864 69.5221 42.8384C69.9221 42.3904 70.2341 41.9504 70.4581 41.5184C70.6901 41.0864 70.8061 40.6704 70.8061 40.2704C70.8061 39.9744 70.7541 39.6984 70.6501 39.4424C70.5541 39.1864 70.3941 38.9824 70.1701 38.8304C69.9461 38.6704 69.6421 38.5904 69.2581 38.5904C68.8901 38.5904 68.5821 38.6744 68.3341 38.8424C68.0861 39.0024 67.8981 39.2184 67.7701 39.4904C67.6501 39.7624 67.5901 40.0544 67.5901 40.3664H66.6181C66.6181 39.8144 66.7341 39.3424 66.9661 38.9504C67.1981 38.5504 67.5141 38.2464 67.9141 38.0384C68.3141 37.8304 68.7661 37.7264 69.2701 37.7264C70.0141 37.7264 70.6221 37.9384 71.0941 38.3624C71.5741 38.7784 71.8141 39.4024 71.8141 40.2344C71.8141 40.7304 71.6901 41.2224 71.4421 41.7104C71.1941 42.1904 70.8781 42.6584 70.4941 43.1144C70.1101 43.5624 69.6981 43.9824 69.2581 44.3744C68.8261 44.7664 68.4221 45.1184 68.0461 45.4304H72.1021V46.2704H66.5581ZM73.1973 46.2704V37.8704H74.2053V41.6744L77.7093 37.8704H78.9813L75.8613 41.2184L79.0293 46.2704H77.8053L75.1413 41.9984L74.2053 42.9944V46.2704H73.1973ZM82.6375 46.2704V37.8704H87.7495V38.6984H83.6455V41.6504H87.1375V42.4664H83.6455V46.2704H82.6375ZM91.0818 46.4144C90.5218 46.4144 90.0178 46.2864 89.5698 46.0304C89.1218 45.7744 88.7658 45.4144 88.5018 44.9504C88.2458 44.4784 88.1178 43.9264 88.1178 43.2944C88.1178 42.6624 88.2498 42.1144 88.5138 41.6504C88.7778 41.1784 89.1338 40.8144 89.5818 40.5584C90.0378 40.3024 90.5458 40.1744 91.1058 40.1744C91.6658 40.1744 92.1698 40.3024 92.6178 40.5584C93.0658 40.8144 93.4178 41.1784 93.6738 41.6504C93.9378 42.1144 94.0698 42.6624 94.0698 43.2944C94.0698 43.9264 93.9378 44.4784 93.6738 44.9504C93.4098 45.4144 93.0498 45.7744 92.5938 46.0304C92.1458 46.2864 91.6418 46.4144 91.0818 46.4144ZM91.0818 45.5504C91.4258 45.5504 91.7458 45.4664 92.0418 45.2984C92.3378 45.1304 92.5778 44.8784 92.7618 44.5424C92.9458 44.2064 93.0378 43.7904 93.0378 43.2944C93.0378 42.7984 92.9458 42.3824 92.7618 42.0464C92.5858 41.7104 92.3498 41.4584 92.0538 41.2904C91.7578 41.1224 91.4418 41.0384 91.1058 41.0384C90.7618 41.0384 90.4418 41.1224 90.1458 41.2904C89.8498 41.4584 89.6098 41.7104 89.4258 42.0464C89.2418 42.3824 89.1498 42.7984 89.1498 43.2944C89.1498 43.7904 89.2418 44.2064 89.4258 44.5424C89.6098 44.8784 89.8458 45.1304 90.1338 45.2984C90.4298 45.4664 90.7458 45.5504 91.0818 45.5504ZM95.1114 46.2704V37.6304H96.1194V46.2704H95.1114ZM97.4115 46.2704V37.6304H98.4195V46.2704H97.4115ZM102.424 46.4144C101.864 46.4144 101.36 46.2864 100.912 46.0304C100.464 45.7744 100.108 45.4144 99.8437 44.9504C99.5877 44.4784 99.4597 43.9264 99.4597 43.2944C99.4597 42.6624 99.5917 42.1144 99.8557 41.6504C100.12 41.1784 100.476 40.8144 100.924 40.5584C101.38 40.3024 101.888 40.1744 102.448 40.1744C103.008 40.1744 103.512 40.3024 103.96 40.5584C104.408 40.8144 104.76 41.1784 105.016 41.6504C105.28 42.1144 105.412 42.6624 105.412 43.2944C105.412 43.9264 105.28 44.4784 105.016 44.9504C104.752 45.4144 104.392 45.7744 103.936 46.0304C103.488 46.2864 102.984 46.4144 102.424 46.4144ZM102.424 45.5504C102.768 45.5504 103.088 45.4664 103.384 45.2984C103.68 45.1304 103.92 44.8784 104.104 44.5424C104.288 44.2064 104.38 43.7904 104.38 43.2944C104.38 42.7984 104.288 42.3824 104.104 42.0464C103.928 41.7104 103.692 41.4584 103.396 41.2904C103.1 41.1224 102.784 41.0384 102.448 41.0384C102.104 41.0384 101.784 41.1224 101.488 41.2904C101.192 41.4584 100.952 41.7104 100.768 42.0464C100.584 42.3824 100.492 42.7984 100.492 43.2944C100.492 43.7904 100.584 44.2064 100.768 44.5424C100.952 44.8784 101.188 45.1304 101.476 45.2984C101.772 45.4664 102.088 45.5504 102.424 45.5504ZM107.431 46.2704L105.691 40.3184H106.699L107.959 44.9864L109.351 40.3184H110.491L111.895 44.9864L113.143 40.3184H114.163L112.423 46.2704H111.391L109.927 41.3624L108.463 46.2704H107.431ZM117.371 46.4144C116.803 46.4144 116.299 46.2864 115.859 46.0304C115.419 45.7664 115.071 45.4024 114.815 44.9384C114.567 44.4744 114.443 43.9264 114.443 43.2944C114.443 42.6704 114.567 42.1264 114.815 41.6624C115.063 41.1904 115.407 40.8264 115.847 40.5704C116.295 40.3064 116.811 40.1744 117.395 40.1744C117.971 40.1744 118.467 40.3064 118.883 40.5704C119.307 40.8264 119.631 41.1664 119.855 41.5904C120.079 42.0144 120.191 42.4704 120.191 42.9584C120.191 43.0464 120.187 43.1344 120.179 43.2224C120.179 43.3104 120.179 43.4104 120.179 43.5224H115.439C115.463 43.9784 115.567 44.3584 115.751 44.6624C115.943 44.9584 116.179 45.1824 116.459 45.3344C116.747 45.4864 117.051 45.5624 117.371 45.5624C117.787 45.5624 118.135 45.4664 118.415 45.2744C118.695 45.0824 118.899 44.8224 119.027 44.4944H120.023C119.863 45.0464 119.555 45.5064 119.099 45.8744C118.651 46.2344 118.075 46.4144 117.371 46.4144ZM117.371 41.0264C116.891 41.0264 116.463 41.1744 116.087 41.4704C115.719 41.7584 115.507 42.1824 115.451 42.7424H119.195C119.171 42.2064 118.987 41.7864 118.643 41.4824C118.299 41.1784 117.875 41.0264 117.371 41.0264ZM121.167 46.2704V40.3184H122.079L122.163 41.4584C122.347 41.0664 122.627 40.7544 123.003 40.5224C123.379 40.2904 123.843 40.1744 124.395 40.1744V41.2304H124.119C123.767 41.2304 123.443 41.2944 123.147 41.4224C122.851 41.5424 122.615 41.7504 122.439 42.0464C122.263 42.3424 122.175 42.7504 122.175 43.2704V46.2704H121.167ZM127.446 46.4144C126.734 46.4144 126.142 46.2344 125.67 45.8744C125.198 45.5144 124.922 45.0264 124.842 44.4104H125.874C125.938 44.7224 126.102 44.9944 126.366 45.2264C126.638 45.4504 127.002 45.5624 127.458 45.5624C127.882 45.5624 128.194 45.4744 128.394 45.2984C128.594 45.1144 128.694 44.8984 128.694 44.6504C128.694 44.2904 128.562 44.0504 128.298 43.9304C128.042 43.8104 127.678 43.7024 127.206 43.6064C126.886 43.5424 126.566 43.4504 126.246 43.3304C125.926 43.2104 125.658 43.0424 125.442 42.8264C125.226 42.6024 125.118 42.3104 125.118 41.9504C125.118 41.4304 125.31 41.0064 125.694 40.6784C126.086 40.3424 126.614 40.1744 127.278 40.1744C127.91 40.1744 128.426 40.3344 128.826 40.6544C129.234 40.9664 129.47 41.4144 129.534 41.9984H128.538C128.498 41.6944 128.366 41.4584 128.142 41.2904C127.926 41.1144 127.634 41.0264 127.266 41.0264C126.906 41.0264 126.626 41.1024 126.426 41.2544C126.234 41.4064 126.138 41.6064 126.138 41.8544C126.138 42.0944 126.262 42.2824 126.51 42.4184C126.766 42.5544 127.11 42.6704 127.542 42.7664C127.91 42.8464 128.258 42.9464 128.586 43.0664C128.922 43.1784 129.194 43.3504 129.402 43.5824C129.618 43.8064 129.726 44.1344 129.726 44.5664C129.734 45.1024 129.53 45.5464 129.114 45.8984C128.706 46.2424 128.15 46.4144 127.446 46.4144Z" fill="#9E9E9E"/>
<rect x="164.541" width="151.541" height="66.5408" rx="33.2704" fill="white"/>
<circle cx="197.811" cy="33.2704" r="21.2704" fill="#FFCC6A"/>
<path d="M206.514 41.6788L200.319 31.9491L206.384 25.2774C206.597 25.0375 206.707 24.7234 206.689 24.4032C206.672 24.0829 206.53 23.7824 206.292 23.5667C206.055 23.351 205.742 23.2376 205.422 23.251C205.101 23.2643 204.799 23.4035 204.58 23.6382L198.967 29.8173L195.139 23.8038C195.029 23.6308 194.877 23.4884 194.698 23.3897C194.518 23.291 194.316 23.2392 194.111 23.2391H189.236C189.018 23.2392 188.804 23.2979 188.616 23.4092C188.428 23.5204 188.274 23.6801 188.169 23.8715C188.063 24.0629 188.012 24.2789 188.019 24.4972C188.026 24.7154 188.091 24.9277 188.209 25.1119L194.404 34.8416L188.335 41.5132C188.225 41.6313 188.139 41.7699 188.083 41.9212C188.027 42.0725 188.002 42.2334 188.009 42.3945C188.016 42.5557 188.054 42.7139 188.123 42.8599C188.191 43.006 188.288 43.1371 188.407 43.2456C188.526 43.354 188.666 43.4377 188.818 43.4918C188.97 43.5459 189.131 43.5693 189.292 43.5606C189.453 43.552 189.611 43.5114 189.756 43.4414C189.901 43.3713 190.031 43.2731 190.138 43.1524L195.756 36.9734L199.584 42.9869C199.694 43.1599 199.845 43.3023 200.025 43.401C200.205 43.4997 200.406 43.5515 200.611 43.5516H205.486C205.705 43.5515 205.919 43.4927 206.107 43.3815C206.295 43.2702 206.449 43.1106 206.554 42.9192C206.659 42.7278 206.711 42.5117 206.704 42.2935C206.697 42.0753 206.631 41.863 206.514 41.6788ZM201.281 41.1141L191.457 25.6766H193.442L203.266 41.1141H201.281Z" fill="#7551DC"/>
<path d="M234.042 29.5344C232.901 29.5344 231.898 29.3104 231.034 28.8624C230.17 28.4144 229.498 27.7744 229.018 26.9424C228.538 26.1211 228.298 25.1504 228.298 24.0304C228.298 22.8891 228.49 21.8277 228.874 20.8464C229.269 19.8651 229.818 19.0117 230.522 18.2864C231.237 17.5504 232.079 16.9797 233.05 16.5744C234.031 16.1584 235.114 15.9504 236.298 15.9504C237.493 15.9504 238.527 16.1797 239.402 16.6384C240.287 17.0971 240.97 17.7371 241.45 18.5584C241.941 19.3691 242.186 20.3131 242.186 21.3904C242.186 22.0197 242.111 22.6277 241.962 23.2144C241.813 23.8011 241.583 24.3344 241.274 24.8144C240.975 25.2837 240.613 25.6624 240.186 25.9504C239.759 26.2277 239.263 26.3664 238.698 26.3664C238.026 26.3664 237.535 26.1637 237.226 25.7584C236.927 25.3531 236.821 24.8251 236.906 24.1744L236.954 23.6464L237.242 24.2384C236.975 24.8997 236.554 25.4224 235.978 25.8064C235.413 26.1797 234.789 26.3664 234.106 26.3664C233.317 26.3664 232.693 26.1264 232.234 25.6464C231.786 25.1557 231.562 24.4891 231.562 23.6464C231.562 23.0597 231.653 22.4997 231.834 21.9664C232.026 21.4331 232.287 20.9584 232.618 20.5424C232.949 20.1157 233.343 19.7797 233.802 19.5344C234.271 19.2891 234.789 19.1664 235.354 19.1664C235.994 19.1664 236.501 19.3371 236.874 19.6784C237.247 20.0091 237.471 20.4944 237.546 21.1344L237.21 21.3424L237.578 19.3264H238.906L238.122 23.8064C238.047 24.2437 238.069 24.6011 238.186 24.8784C238.303 25.1451 238.549 25.2784 238.922 25.2784C239.253 25.2784 239.541 25.1611 239.786 24.9264C240.031 24.6917 240.239 24.3877 240.41 24.0144C240.581 23.6304 240.709 23.2144 240.794 22.7664C240.879 22.3184 240.922 21.8811 240.922 21.4544C240.922 20.5371 240.725 19.7531 240.33 19.1024C239.946 18.4517 239.397 17.9504 238.682 17.5984C237.967 17.2357 237.114 17.0544 236.122 17.0544C235.162 17.0544 234.282 17.2304 233.482 17.5824C232.682 17.9344 231.989 18.4251 231.402 19.0544C230.815 19.6731 230.362 20.3984 230.042 21.2304C229.722 22.0624 229.562 22.9531 229.562 23.9024C229.562 24.8624 229.749 25.6784 230.122 26.3504C230.506 27.0224 231.05 27.5291 231.754 27.8704C232.469 28.2224 233.311 28.3984 234.282 28.3984C234.751 28.3984 235.215 28.3504 235.674 28.2544C236.143 28.1691 236.575 28.0357 236.97 27.8544L237.242 28.9264C236.751 29.1291 236.234 29.2784 235.69 29.3744C235.157 29.4811 234.607 29.5344 234.042 29.5344ZM234.602 25.1664C235.018 25.1664 235.402 25.0544 235.754 24.8304C236.106 24.5957 236.399 24.2757 236.634 23.8704C236.869 23.4544 237.007 22.9797 237.05 22.4464C237.093 22.0624 237.055 21.7157 236.938 21.4064C236.831 21.0864 236.65 20.8357 236.394 20.6544C236.149 20.4624 235.829 20.3664 235.434 20.3664C235.061 20.3664 234.719 20.4517 234.41 20.6224C234.111 20.7931 233.855 21.0224 233.642 21.3104C233.439 21.5984 233.279 21.9237 233.162 22.2864C233.055 22.6491 233.002 23.0171 233.002 23.3904C233.002 23.9237 233.135 24.3557 233.402 24.6864C233.669 25.0064 234.069 25.1664 234.602 25.1664ZM245.028 26.2704V22.1104L241.332 15.0704H243.14L246.052 20.9904H245.62L248.5 15.0704H250.292L246.628 22.1104V26.2704H245.028ZM252.993 26.4624C252.235 26.4624 251.553 26.2917 250.945 25.9504C250.347 25.5984 249.873 25.1077 249.521 24.4784C249.179 23.8384 249.009 23.0971 249.009 22.2544C249.009 21.4117 249.185 20.6757 249.537 20.0464C249.889 19.4064 250.369 18.9157 250.977 18.5744C251.585 18.2224 252.262 18.0464 253.009 18.0464C253.777 18.0464 254.459 18.2224 255.057 18.5744C255.665 18.9157 256.139 19.4011 256.481 20.0304C256.833 20.6597 257.009 21.4011 257.009 22.2544C257.009 23.0971 256.833 23.8384 256.481 24.4784C256.129 25.1077 255.649 25.5984 255.041 25.9504C254.443 26.2917 253.761 26.4624 252.993 26.4624ZM252.993 25.0864C253.43 25.0864 253.825 24.9851 254.177 24.7824C254.539 24.5691 254.827 24.2491 255.041 23.8224C255.265 23.3957 255.377 22.8731 255.377 22.2544C255.377 21.6251 255.27 21.1024 255.057 20.6864C254.843 20.2597 254.555 19.9451 254.193 19.7424C253.841 19.5291 253.451 19.4224 253.025 19.4224C252.609 19.4224 252.214 19.5291 251.841 19.7424C251.478 19.9451 251.185 20.2597 250.961 20.6864C250.747 21.1024 250.641 21.6251 250.641 22.2544C250.641 22.8731 250.747 23.3957 250.961 23.8224C251.185 24.2491 251.473 24.5691 251.825 24.7824C252.187 24.9851 252.577 25.0864 252.993 25.0864ZM260.859 26.4624C260.23 26.4624 259.686 26.3344 259.227 26.0784C258.768 25.8224 258.411 25.4384 258.155 24.9264C257.91 24.4037 257.787 23.7531 257.787 22.9744V18.2384H259.387V22.8144C259.387 23.5717 259.547 24.1424 259.867 24.5264C260.198 24.9104 260.672 25.1024 261.291 25.1024C261.718 25.1024 262.096 25.0011 262.427 24.7984C262.768 24.5957 263.035 24.3024 263.227 23.9184C263.419 23.5344 263.515 23.0651 263.515 22.5104V18.2384H265.115V26.2704H263.691L263.579 24.8944C263.334 25.3744 262.971 25.7584 262.491 26.0464C262.022 26.3237 261.478 26.4624 260.859 26.4624ZM266.33 26.2704V18.2384H267.77L267.914 19.7584C268.095 19.3957 268.325 19.0917 268.602 18.8464C268.89 18.5904 269.226 18.3931 269.61 18.2544C270.005 18.1157 270.447 18.0464 270.938 18.0464V19.7264H270.41C270.069 19.7264 269.749 19.7691 269.45 19.8544C269.151 19.9397 268.885 20.0784 268.65 20.2704C268.426 20.4624 268.25 20.7237 268.122 21.0544C267.994 21.3851 267.93 21.7957 267.93 22.2864V26.2704H266.33ZM276.472 26.4624C275.373 26.4624 274.424 26.2224 273.624 25.7424C272.824 25.2517 272.205 24.5744 271.768 23.7104C271.341 22.8357 271.128 21.8224 271.128 20.6704C271.128 19.5291 271.341 18.5211 271.768 17.6464C272.205 16.7717 272.824 16.0944 273.624 15.6144C274.424 15.1237 275.373 14.8784 276.472 14.8784C277.773 14.8784 278.834 15.1931 279.656 15.8224C280.477 16.4517 280.994 17.3371 281.208 18.4784H279.464C279.293 17.8171 278.957 17.2891 278.456 16.8944C277.965 16.4997 277.298 16.3024 276.456 16.3024C275.709 16.3024 275.053 16.4784 274.488 16.8304C273.933 17.1824 273.506 17.6837 273.208 18.3344C272.909 18.9851 272.76 19.7637 272.76 20.6704C272.76 21.5771 272.909 22.3611 273.208 23.0224C273.506 23.6731 273.933 24.1744 274.488 24.5264C275.053 24.8677 275.709 25.0384 276.456 25.0384C277.298 25.0384 277.965 24.8517 278.456 24.4784C278.957 24.0944 279.288 23.5771 279.448 22.9264H281.208C280.994 24.0357 280.477 24.9051 279.656 25.5344C278.834 26.1531 277.773 26.4624 276.472 26.4624ZM285.762 26.4624C285.005 26.4624 284.322 26.2917 283.714 25.9504C283.117 25.5984 282.642 25.1077 282.29 24.4784C281.949 23.8384 281.778 23.0971 281.778 22.2544C281.778 21.4117 281.954 20.6757 282.306 20.0464C282.658 19.4064 283.138 18.9157 283.746 18.5744C284.354 18.2224 285.031 18.0464 285.778 18.0464C286.546 18.0464 287.229 18.2224 287.826 18.5744C288.434 18.9157 288.909 19.4011 289.25 20.0304C289.602 20.6597 289.778 21.4011 289.778 22.2544C289.778 23.0971 289.602 23.8384 289.25 24.4784C288.898 25.1077 288.418 25.5984 287.81 25.9504C287.213 26.2917 286.53 26.4624 285.762 26.4624ZM285.762 25.0864C286.199 25.0864 286.594 24.9851 286.946 24.7824C287.309 24.5691 287.597 24.2491 287.81 23.8224C288.034 23.3957 288.146 22.8731 288.146 22.2544C288.146 21.6251 288.039 21.1024 287.826 20.6864C287.613 20.2597 287.325 19.9451 286.962 19.7424C286.61 19.5291 286.221 19.4224 285.794 19.4224C285.378 19.4224 284.983 19.5291 284.61 19.7424C284.247 19.9451 283.954 20.2597 283.73 20.6864C283.517 21.1024 283.41 21.6251 283.41 22.2544C283.41 22.8731 283.517 23.3957 283.73 23.8224C283.954 24.2491 284.242 24.5691 284.594 24.7824C284.957 24.9851 285.346 25.0864 285.762 25.0864Z" fill="#121212"/>
<path d="M230.742 48.4144C230.19 48.4144 229.694 48.3144 229.254 48.1144C228.814 47.9064 228.466 47.6224 228.21 47.2624C227.962 46.8944 227.838 46.4704 227.838 45.9904C227.838 45.4784 227.986 45.0184 228.282 44.6104C228.586 44.2024 228.986 43.9304 229.482 43.7944C229.026 43.6424 228.674 43.3984 228.426 43.0624C228.178 42.7264 228.054 42.3584 228.054 41.9584C228.054 41.5504 228.162 41.1784 228.378 40.8424C228.594 40.4984 228.902 40.2264 229.302 40.0264C229.702 39.8264 230.182 39.7264 230.742 39.7264C231.302 39.7264 231.782 39.8264 232.182 40.0264C232.582 40.2264 232.89 40.4984 233.106 40.8424C233.322 41.1784 233.43 41.5504 233.43 41.9584C233.43 42.3504 233.306 42.7184 233.058 43.0624C232.81 43.3984 232.458 43.6424 232.002 43.7944C232.498 43.9304 232.894 44.2024 233.19 44.6104C233.494 45.0184 233.646 45.4784 233.646 45.9904C233.646 46.4704 233.518 46.8944 233.262 47.2624C233.014 47.6224 232.67 47.9064 232.23 48.1144C231.79 48.3144 231.294 48.4144 230.742 48.4144ZM230.742 43.4344C231.254 43.4344 231.658 43.3064 231.954 43.0504C232.258 42.7864 232.41 42.4424 232.41 42.0184C232.41 41.5464 232.262 41.1904 231.966 40.9504C231.67 40.7104 231.262 40.5904 230.742 40.5904C230.222 40.5904 229.814 40.7104 229.518 40.9504C229.23 41.1904 229.086 41.5464 229.086 42.0184C229.086 42.4424 229.234 42.7864 229.53 43.0504C229.826 43.3064 230.23 43.4344 230.742 43.4344ZM230.742 47.5264C231.374 47.5264 231.846 47.3824 232.158 47.0944C232.478 46.7984 232.638 46.4104 232.638 45.9304C232.638 45.3864 232.466 44.9744 232.122 44.6944C231.778 44.4144 231.318 44.2744 230.742 44.2744C230.166 44.2744 229.706 44.4144 229.362 44.6944C229.018 44.9744 228.846 45.3864 228.846 45.9304C228.846 46.4104 229.002 46.7984 229.314 47.0944C229.634 47.3824 230.11 47.5264 230.742 47.5264ZM234.934 48.2704V39.8704H235.942V43.6744L239.446 39.8704H240.718L237.598 43.2184L240.766 48.2704H239.542L236.878 43.9984L235.942 44.9944V48.2704H234.934ZM244.374 48.2704V39.8704H249.486V40.6984H245.382V43.6504H248.874V44.4664H245.382V48.2704H244.374ZM252.819 48.4144C252.259 48.4144 251.755 48.2864 251.307 48.0304C250.859 47.7744 250.503 47.4144 250.239 46.9504C249.983 46.4784 249.855 45.9264 249.855 45.2944C249.855 44.6624 249.987 44.1144 250.251 43.6504C250.515 43.1784 250.871 42.8144 251.319 42.5584C251.775 42.3024 252.283 42.1744 252.843 42.1744C253.403 42.1744 253.907 42.3024 254.355 42.5584C254.803 42.8144 255.155 43.1784 255.411 43.6504C255.675 44.1144 255.807 44.6624 255.807 45.2944C255.807 45.9264 255.675 46.4784 255.411 46.9504C255.147 47.4144 254.787 47.7744 254.331 48.0304C253.883 48.2864 253.379 48.4144 252.819 48.4144ZM252.819 47.5504C253.163 47.5504 253.483 47.4664 253.779 47.2984C254.075 47.1304 254.315 46.8784 254.499 46.5424C254.683 46.2064 254.775 45.7904 254.775 45.2944C254.775 44.7984 254.683 44.3824 254.499 44.0464C254.323 43.7104 254.087 43.4584 253.791 43.2904C253.495 43.1224 253.179 43.0384 252.843 43.0384C252.499 43.0384 252.179 43.1224 251.883 43.2904C251.587 43.4584 251.347 43.7104 251.163 44.0464C250.979 44.3824 250.887 44.7984 250.887 45.2944C250.887 45.7904 250.979 46.2064 251.163 46.5424C251.347 46.8784 251.583 47.1304 251.871 47.2984C252.167 47.4664 252.483 47.5504 252.819 47.5504ZM256.848 48.2704V39.6304H257.856V48.2704H256.848ZM259.148 48.2704V39.6304H260.156V48.2704H259.148ZM264.161 48.4144C263.601 48.4144 263.097 48.2864 262.649 48.0304C262.201 47.7744 261.845 47.4144 261.581 46.9504C261.325 46.4784 261.197 45.9264 261.197 45.2944C261.197 44.6624 261.329 44.1144 261.593 43.6504C261.857 43.1784 262.213 42.8144 262.661 42.5584C263.117 42.3024 263.625 42.1744 264.185 42.1744C264.745 42.1744 265.249 42.3024 265.697 42.5584C266.145 42.8144 266.497 43.1784 266.753 43.6504C267.017 44.1144 267.149 44.6624 267.149 45.2944C267.149 45.9264 267.017 46.4784 266.753 46.9504C266.489 47.4144 266.129 47.7744 265.673 48.0304C265.225 48.2864 264.721 48.4144 264.161 48.4144ZM264.161 47.5504C264.505 47.5504 264.825 47.4664 265.121 47.2984C265.417 47.1304 265.657 46.8784 265.841 46.5424C266.025 46.2064 266.117 45.7904 266.117 45.2944C266.117 44.7984 266.025 44.3824 265.841 44.0464C265.665 43.7104 265.429 43.4584 265.133 43.2904C264.837 43.1224 264.521 43.0384 264.185 43.0384C263.841 43.0384 263.521 43.1224 263.225 43.2904C262.929 43.4584 262.689 43.7104 262.505 44.0464C262.321 44.3824 262.229 44.7984 262.229 45.2944C262.229 45.7904 262.321 46.2064 262.505 46.5424C262.689 46.8784 262.925 47.1304 263.213 47.2984C263.509 47.4664 263.825 47.5504 264.161 47.5504ZM269.168 48.2704L267.428 42.3184H268.436L269.696 46.9864L271.088 42.3184H272.228L273.632 46.9864L274.88 42.3184H275.9L274.16 48.2704H273.128L271.664 43.3624L270.2 48.2704H269.168ZM279.108 48.4144C278.54 48.4144 278.036 48.2864 277.596 48.0304C277.156 47.7664 276.808 47.4024 276.552 46.9384C276.304 46.4744 276.18 45.9264 276.18 45.2944C276.18 44.6704 276.304 44.1264 276.552 43.6624C276.8 43.1904 277.144 42.8264 277.584 42.5704C278.032 42.3064 278.548 42.1744 279.132 42.1744C279.708 42.1744 280.204 42.3064 280.62 42.5704C281.044 42.8264 281.368 43.1664 281.592 43.5904C281.816 44.0144 281.928 44.4704 281.928 44.9584C281.928 45.0464 281.924 45.1344 281.916 45.2224C281.916 45.3104 281.916 45.4104 281.916 45.5224H277.176C277.2 45.9784 277.304 46.3584 277.488 46.6624C277.68 46.9584 277.916 47.1824 278.196 47.3344C278.484 47.4864 278.788 47.5624 279.108 47.5624C279.524 47.5624 279.872 47.4664 280.152 47.2744C280.432 47.0824 280.636 46.8224 280.764 46.4944H281.76C281.6 47.0464 281.292 47.5064 280.836 47.8744C280.388 48.2344 279.812 48.4144 279.108 48.4144ZM279.108 43.0264C278.628 43.0264 278.2 43.1744 277.824 43.4704C277.456 43.7584 277.244 44.1824 277.188 44.7424H280.932C280.908 44.2064 280.724 43.7864 280.38 43.4824C280.036 43.1784 279.612 43.0264 279.108 43.0264ZM282.904 48.2704V42.3184H283.816L283.9 43.4584C284.084 43.0664 284.364 42.7544 284.74 42.5224C285.116 42.2904 285.58 42.1744 286.132 42.1744V43.2304H285.856C285.504 43.2304 285.18 43.2944 284.884 43.4224C284.588 43.5424 284.352 43.7504 284.176 44.0464C284 44.3424 283.912 44.7504 283.912 45.2704V48.2704H282.904ZM289.183 48.4144C288.471 48.4144 287.879 48.2344 287.407 47.8744C286.935 47.5144 286.659 47.0264 286.579 46.4104H287.611C287.675 46.7224 287.839 46.9944 288.103 47.2264C288.375 47.4504 288.739 47.5624 289.195 47.5624C289.619 47.5624 289.931 47.4744 290.131 47.2984C290.331 47.1144 290.431 46.8984 290.431 46.6504C290.431 46.2904 290.299 46.0504 290.035 45.9304C289.779 45.8104 289.415 45.7024 288.943 45.6064C288.623 45.5424 288.303 45.4504 287.983 45.3304C287.663 45.2104 287.395 45.0424 287.179 44.8264C286.963 44.6024 286.855 44.3104 286.855 43.9504C286.855 43.4304 287.047 43.0064 287.431 42.6784C287.823 42.3424 288.351 42.1744 289.015 42.1744C289.647 42.1744 290.163 42.3344 290.563 42.6544C290.971 42.9664 291.207 43.4144 291.271 43.9984H290.275C290.235 43.6944 290.103 43.4584 289.879 43.2904C289.663 43.1144 289.371 43.0264 289.003 43.0264C288.643 43.0264 288.363 43.1024 288.163 43.2544C287.971 43.4064 287.875 43.6064 287.875 43.8544C287.875 44.0944 287.999 44.2824 288.247 44.4184C288.503 44.5544 288.847 44.6704 289.279 44.7664C289.647 44.8464 289.995 44.9464 290.323 45.0664C290.659 45.1784 290.931 45.3504 291.139 45.5824C291.355 45.8064 291.463 46.1344 291.463 46.5664C291.471 47.1024 291.267 47.5464 290.851 47.8984C290.443 48.2424 289.887 48.4144 289.183 48.4144Z" fill="#9E9E9E"/>
</svg>
